<?xml version="1.0" encoding="UTF-8" standalone="no"?>
<!-- Creator: fig2dev Version 3.2 Patchlevel 5d -->

<!-- CreationDate: Wed Aug 16 10:23:35 2017 -->

<!-- Magnification: 1.000 -->

<svg
   xmlns:dc="http://purl.org/dc/elements/1.1/"
   xmlns:cc="http://creativecommons.org/ns#"
   xmlns:rdf="http://www.w3.org/1999/02/22-rdf-syntax-ns#"
   xmlns:svg="http://www.w3.org/2000/svg"
   xmlns="http://www.w3.org/2000/svg"
   xmlns:sodipodi="http://sodipodi.sourceforge.net/DTD/sodipodi-0.dtd"
   xmlns:inkscape="http://www.inkscape.org/namespaces/inkscape"
   width="8.3in"
   height="7.2in"
   viewBox="342 363 9986 8595"
   id="svg3336"
   version="1.1"
   inkscape:version="0.91 r13725"
   sodipodi:docname="Transport.svg">
  <metadata
     id="metadata3480">
    <rdf:RDF>
      <cc:Work
         rdf:about="">
        <dc:format>image/svg+xml</dc:format>
        <dc:type
           rdf:resource="http://purl.org/dc/dcmitype/StillImage" />
        <dc:title></dc:title>
      </cc:Work>
    </rdf:RDF>
  </metadata>
  <defs
     id="defs3478" />
  <sodipodi:namedview
     pagecolor="#ffffff"
     bordercolor="#666666"
     borderopacity="1"
     objecttolerance="10"
     gridtolerance="10"
     guidetolerance="10"
     inkscape:pageopacity="0"
     inkscape:pageshadow="2"
     inkscape:window-width="1669"
     inkscape:window-height="1315"
     id="namedview3476"
     showgrid="false"
     inkscape:zoom="1.8518519"
     inkscape:cx="373.50001"
     inkscape:cy="259.19999"
     inkscape:window-x="0"
     inkscape:window-y="0"
     inkscape:window-maximized="0"
     inkscape:current-layer="svg3336" />
  <g
     style="stroke-width:.025in; fill:none"
     id="g3338">
    <!-- Text -->
    <text
       xml:space="preserve"
       x="3075"
       y="6375"
       fill="#000000"
       font-family="Helvetica"
       font-style="normal"
       font-weight="bold"
       font-size="168"
       text-anchor="start"
       id="text3340">Thread pool</text>
    <!-- Line: box -->
    <rect
       x="600"
       y="2925"
       width="6675"
       height="825"
       rx="0"
       style="stroke:#000000;stroke-width:7; stroke-linejoin:miter; stroke-linecap:butt; "
       id="rect3342" />
    <!-- Line: box -->
    <rect
       x="600"
       y="1650"
       width="6675"
       height="825"
       rx="0"
       style="stroke:#000000;stroke-width:7; stroke-linejoin:miter; stroke-linecap:butt; "
       id="rect3344" />
    <!-- Line -->
    <polyline
       points="375,8925 10200,8925 "
       style="stroke:#000000;stroke-width:30; stroke-linejoin:miter; stroke-linecap:butt; "
       id="polyline3346" />
    <!-- Line -->
    <polyline
       points="1800,8925 1800,8519 "
       style="stroke:#000000;stroke-width:7; stroke-linejoin:miter; stroke-linecap:butt; "
       id="polyline3348" />
    <!-- Arrowhead on XXXpoint 1800 8925 - 1800 8385-->
    <polygon
       points="1830 8521 1800 8401 1770 8521 1830 8521  "
       style="stroke:#000000;stroke-width:7;stroke-miterlimit:8; fill:#000000;"
       id="polygon3350" />
    <!-- Line -->
    <polyline
       points="3750,8925 3750,8519 "
       style="stroke:#000000;stroke-width:7; stroke-linejoin:miter; stroke-linecap:butt; "
       id="polyline3352" />
    <!-- Arrowhead on XXXpoint 3750 8925 - 3750 8385-->
    <polygon
       points="3780 8521 3750 8401 3720 8521 3780 8521  "
       style="stroke:#000000;stroke-width:7;stroke-miterlimit:8; fill:#000000;"
       id="polygon3354" />
    <!-- Line -->
    <polyline
       points="6075,8925 6075,8519 "
       style="stroke:#000000;stroke-width:7; stroke-linejoin:miter; stroke-linecap:butt; "
       id="polyline3356" />
    <!-- Arrowhead on XXXpoint 6075 8925 - 6075 8385-->
    <polygon
       points="6105 8521 6075 8401 6045 8521 6105 8521  "
       style="stroke:#000000;stroke-width:7;stroke-miterlimit:8; fill:#000000;"
       id="polygon3358" />
    <!-- Line -->
    <polyline
       points="1875,7275 2046,6931 "
       style="stroke:#000000;stroke-width:7; stroke-linejoin:miter; stroke-linecap:butt; "
       id="polyline3360" />
    <!-- Arrowhead on XXXpoint 1875 7275 - 2106 6811-->
    <polygon
       points="2072 6945 2099 6825 2018 6919 2072 6945  "
       style="stroke:#000000;stroke-width:7;stroke-miterlimit:8; fill:#000000;"
       id="polygon3362" />
    <!-- Line -->
    <polyline
       points="1875,7350 4083,6850 "
       style="stroke:#000000;stroke-width:7; stroke-linejoin:miter; stroke-linecap:butt; "
       id="polyline3364" />
    <!-- Arrowhead on XXXpoint 1875 7350 - 4214 6821-->
    <polygon
       points="4087 6880 4198 6825 4074 6822 4087 6880  "
       style="stroke:#000000;stroke-width:7;stroke-miterlimit:8; fill:#000000;"
       id="polygon3366" />
    <!-- Line -->
    <polyline
       points="5925,7275 5925,6944 "
       style="stroke:#000000;stroke-width:7; stroke-linejoin:miter; stroke-linecap:butt; "
       id="polyline3368" />
    <!-- Arrowhead on XXXpoint 5925 7275 - 5925 6810-->
    <polygon
       points="5955 6946 5925 6826 5895 6946 5955 6946  "
       style="stroke:#000000;stroke-width:7;stroke-miterlimit:8; fill:#000000;"
       id="polygon3370" />
    <!-- Line -->
    <polyline
       points="5925,7275 3418,6916 "
       style="stroke:#000000;stroke-width:7; stroke-linejoin:miter; stroke-linecap:butt; "
       id="polyline3372" />
    <!-- Arrowhead on XXXpoint 5925 7275 - 3285 6897-->
    <polygon
       points="3424 6886 3301 6899 3415 6945 3424 6886  "
       style="stroke:#000000;stroke-width:7;stroke-miterlimit:8; fill:#000000;"
       id="polygon3374" />
    <!-- Line -->
    <polyline
       points="3675,7350 5509,6855 "
       style="stroke:#000000;stroke-width:7; stroke-linejoin:miter; stroke-linecap:butt; "
       id="polyline3376" />
    <!-- Arrowhead on XXXpoint 3675 7350 - 5639 6821-->
    <polygon
       points="5514 6885 5623 6825 5499 6827 5514 6885  "
       style="stroke:#000000;stroke-width:7;stroke-miterlimit:8; fill:#000000;"
       id="polygon3378" />
    <!-- Line -->
    <polyline
       points="3675,7350 3027,6961 "
       style="stroke:#000000;stroke-width:7; stroke-linejoin:miter; stroke-linecap:butt; "
       id="polyline3380" />
    <!-- Arrowhead on XXXpoint 3675 7350 - 2912 6892-->
    <polygon
       points="3044 6936 2926 6900 3013 6987 3044 6936  "
       style="stroke:#000000;stroke-width:7;stroke-miterlimit:8; fill:#000000;"
       id="polygon3382" />
    <!-- Line: box -->
    <rect
       x="600"
       y="375"
       width="6675"
       height="825"
       rx="105"
       style="stroke:#000000;stroke-width:7; stroke-linejoin:miter; stroke-linecap:butt; "
       id="rect3384" />
    <!-- Line -->
    <polyline
       points="5700,5550 5700,2219 "
       style="stroke:#000000;stroke-width:7; stroke-linejoin:miter; stroke-linecap:butt; "
       id="polyline3386" />
    <!-- Arrowhead on XXXpoint 5700 5550 - 5700 2085-->
    <polygon
       points="5730 2221 5700 2101 5670 2221 5730 2221  "
       style="stroke:#000000;stroke-width:7;stroke-miterlimit:8; fill:#000000;"
       id="polygon3388" />
    <!-- Line -->
    <polyline
       points="5550,5550 5550,2219 "
       style="stroke:#000000;stroke-width:7; stroke-linejoin:miter; stroke-linecap:butt; "
       id="polyline3390" />
    <!-- Arrowhead on XXXpoint 5550 5550 - 5550 2085-->
    <polygon
       points="5580 2221 5550 2101 5520 2221 5580 2221  "
       style="stroke:#000000;stroke-width:7;stroke-miterlimit:8; fill:#000000;"
       id="polygon3392" />
    <!-- Line -->
    <polyline
       points="5325,5550 5325,2219 "
       style="stroke:#000000;stroke-width:7; stroke-linejoin:miter; stroke-linecap:butt; "
       id="polyline3394" />
    <!-- Arrowhead on XXXpoint 5325 5550 - 5325 2085-->
    <polygon
       points="5355 2221 5325 2101 5295 2221 5355 2221  "
       style="stroke:#000000;stroke-width:7;stroke-miterlimit:8; fill:#000000;"
       id="polygon3396" />
    <!-- Line -->
    <polyline
       points="5175,5550 5175,2219 "
       style="stroke:#000000;stroke-width:7; stroke-linejoin:miter; stroke-linecap:butt; "
       id="polyline3398" />
    <!-- Arrowhead on XXXpoint 5175 5550 - 5175 2085-->
    <polygon
       points="5205 2221 5175 2101 5145 2221 5205 2221  "
       style="stroke:#000000;stroke-width:7;stroke-miterlimit:8; fill:#000000;"
       id="polygon3400" />
    <!-- Line -->
    <polyline
       points="4950,5550 4950,2219 "
       style="stroke:#000000;stroke-width:7; stroke-linejoin:miter; stroke-linecap:butt; "
       id="polyline3402" />
    <!-- Arrowhead on XXXpoint 4950 5550 - 4950 2085-->
    <polygon
       points="4980 2221 4950 2101 4920 2221 4980 2221  "
       style="stroke:#000000;stroke-width:7;stroke-miterlimit:8; fill:#000000;"
       id="polygon3404" />
    <!-- Line -->
    <polyline
       points="2850,5550 2850,1019 "
       style="stroke:#000000;stroke-width:7; stroke-linejoin:miter; stroke-linecap:butt; "
       id="polyline3406" />
    <!-- Arrowhead on XXXpoint 2850 5550 - 2850 885-->
    <polygon
       points="2880 1021 2850 901 2820 1021 2880 1021  "
       style="stroke:#000000;stroke-width:7;stroke-miterlimit:8; fill:#000000;"
       id="polygon3408" />
    <!-- Line -->
    <polyline
       points="2700,5550 2700,1019 "
       style="stroke:#000000;stroke-width:7; stroke-linejoin:miter; stroke-linecap:butt; "
       id="polyline3410" />
    <!-- Arrowhead on XXXpoint 2700 5550 - 2700 885-->
    <polygon
       points="2730 1021 2700 901 2670 1021 2730 1021  "
       style="stroke:#000000;stroke-width:7;stroke-miterlimit:8; fill:#000000;"
       id="polygon3412" />
    <!-- Line -->
    <polyline
       points="2550,5550 2550,1019 "
       style="stroke:#000000;stroke-width:7; stroke-linejoin:miter; stroke-linecap:butt; "
       id="polyline3414" />
    <!-- Arrowhead on XXXpoint 2550 5550 - 2550 885-->
    <polygon
       points="2580 1021 2550 901 2520 1021 2580 1021  "
       style="stroke:#000000;stroke-width:7;stroke-miterlimit:8; fill:#000000;"
       id="polygon3416" />
    <!-- Line -->
    <polyline
       points="5325,1950 5325,1019 "
       style="stroke:#000000;stroke-width:7; stroke-linejoin:miter; stroke-linecap:butt; "
       id="polyline3418" />
    <!-- Arrowhead on XXXpoint 5325 1950 - 5325 885-->
    <polygon
       points="5355 1021 5325 901 5295 1021 5355 1021  "
       style="stroke:#000000;stroke-width:7;stroke-miterlimit:8; fill:#000000;"
       id="polygon3420" />
    <!-- Line -->
    <polyline
       points="6600,900 6600,7755 "
       style="stroke:#000000;stroke-width:7; stroke-linejoin:miter; stroke-linecap:butt; "
       id="polyline3422" />
    <!-- Arrowhead on XXXpoint 6600 900 - 6600 7890-->
    <polygon
       points="6570 7754 6600 7874 6630 7754 6570 7754  "
       style="stroke:#000000;stroke-width:7;stroke-miterlimit:8; fill:#000000;"
       id="polygon3424" />
    <!-- Line: box -->
    <rect
       x="600"
       y="5325"
       width="6675"
       height="3000"
       rx="0"
       style="stroke:#000000;stroke-width:7; stroke-linejoin:miter; stroke-linecap:butt; "
       id="rect3426" />
    <!-- Line: box -->
    <rect
       x="825"
       y="5550"
       width="5625"
       height="1275"
       rx="0"
       style="stroke:#000000;stroke-width:7; stroke-linejoin:miter; stroke-linecap:butt; "
       id="rect3428" />
    <!-- Line -->
    <polyline
       points="3600,7425 3603,7426 3609,7430 3619,7435 3632,7442 3648,7452 3666,7463 3683,7474 3700,7487 3715,7501 3729,7517 3740,7534 3747,7554 3750,7575 3747,7596 3740,7614 3729,7628 3717,7637 3703,7644 3689,7647 3675,7650 3661,7653 3647,7656 3633,7663 3621,7672 3610,7686 3603,7704 3600,7725 3603,7746 3610,7766 3621,7783 3635,7799 3650,7813 3667,7826 3684,7838 3702,7848 3718,7858 3731,7865 3741,7870 3747,7874 3750,7875 "
       style="stroke:#000000;stroke-width:7; stroke-linejoin:bevel; stroke-linecap:butt; "
       id="polyline3430" />
    <!-- Line -->
    <polyline
       points="5737,7462 5740,7463 5746,7467 5756,7472 5769,7479 5785,7489 5803,7500 5820,7511 5837,7524 5852,7538 5866,7554 5877,7571 5884,7591 5887,7612 5884,7633 5877,7651 5866,7665 5854,7674 5840,7681 5826,7684 5812,7687 5798,7690 5784,7693 5770,7700 5758,7709 5747,7723 5740,7741 5737,7762 5740,7783 5747,7803 5758,7820 5772,7836 5787,7850 5804,7863 5821,7875 5839,7885 5855,7895 5868,7902 5878,7907 5884,7911 5887,7912 "
       style="stroke:#000000;stroke-width:7; stroke-linejoin:bevel; stroke-linecap:butt; "
       id="polyline3432" />
    <!-- Line -->
    <polyline
       points="5925,7425 5928,7426 5934,7430 5944,7435 5957,7442 5973,7452 5991,7463 6008,7474 6025,7487 6040,7501 6054,7517 6065,7534 6072,7554 6075,7575 6072,7596 6065,7614 6054,7628 6042,7637 6028,7644 6014,7647 6000,7650 5986,7653 5972,7656 5958,7663 5946,7672 5935,7686 5928,7704 5925,7725 5928,7746 5935,7766 5946,7783 5960,7799 5975,7813 5992,7826 6009,7838 6027,7848 6043,7858 6056,7865 6066,7870 6072,7874 6075,7875 "
       style="stroke:#000000;stroke-width:7; stroke-linejoin:bevel; stroke-linecap:butt; "
       id="polyline3434" />
    <!-- Line -->
    <polyline
       points="6075,7425 6078,7426 6084,7430 6094,7435 6107,7442 6123,7452 6141,7463 6158,7474 6175,7487 6190,7501 6204,7517 6215,7534 6222,7554 6225,7575 6222,7596 6215,7614 6204,7628 6192,7637 6178,7644 6164,7647 6150,7650 6136,7653 6122,7656 6108,7663 6096,7672 6085,7686 6078,7704 6075,7725 6078,7746 6085,7766 6096,7783 6110,7799 6125,7813 6142,7826 6159,7838 6177,7848 6193,7858 6206,7865 6216,7870 6222,7874 6225,7875 "
       style="stroke:#000000;stroke-width:7; stroke-linejoin:bevel; stroke-linecap:butt; "
       id="polyline3436" />
    <!-- Line -->
    <polyline
       points="1500,7425 1503,7426 1509,7430 1519,7435 1532,7442 1548,7452 1566,7463 1583,7474 1600,7487 1615,7501 1629,7517 1640,7534 1647,7554 1650,7575 1647,7596 1640,7614 1629,7628 1617,7637 1603,7644 1589,7647 1575,7650 1561,7653 1547,7656 1533,7663 1521,7672 1510,7686 1503,7704 1500,7725 1503,7746 1510,7766 1521,7783 1535,7799 1550,7813 1567,7826 1584,7838 1602,7848 1618,7858 1631,7865 1641,7870 1647,7874 1650,7875 "
       style="stroke:#000000;stroke-width:7; stroke-linejoin:bevel; stroke-linecap:butt; "
       id="polyline3438" />
    <!-- Line -->
    <polyline
       points="5550,5775 5553,5776 5559,5780 5569,5785 5582,5792 5598,5802 5616,5813 5633,5824 5650,5837 5665,5851 5679,5867 5690,5884 5697,5904 5700,5925 5697,5946 5690,5964 5679,5978 5667,5987 5653,5994 5639,5997 5625,6000 5611,6003 5597,6006 5583,6013 5571,6022 5560,6036 5553,6054 5550,6075 5553,6096 5560,6116 5571,6133 5585,6149 5600,6163 5617,6176 5634,6188 5652,6198 5668,6208 5681,6215 5691,6220 5697,6224 5700,6225 "
       style="stroke:#000000;stroke-width:7; stroke-linejoin:bevel; stroke-linecap:butt; "
       id="polyline3440" />
    <!-- Line -->
    <polyline
       points="5250,5775 5253,5776 5259,5780 5269,5785 5282,5792 5298,5802 5316,5813 5333,5824 5350,5837 5365,5851 5379,5867 5390,5884 5397,5904 5400,5925 5397,5946 5390,5964 5379,5978 5367,5987 5353,5994 5339,5997 5325,6000 5311,6003 5297,6006 5283,6013 5271,6022 5260,6036 5253,6054 5250,6075 5253,6096 5260,6116 5271,6133 5285,6149 5300,6163 5317,6176 5334,6188 5352,6198 5368,6208 5381,6215 5391,6220 5397,6224 5400,6225 "
       style="stroke:#000000;stroke-width:7; stroke-linejoin:bevel; stroke-linecap:butt; "
       id="polyline3442" />
    <!-- Line -->
    <polyline
       points="5400,5775 5403,5776 5409,5780 5419,5785 5432,5792 5448,5802 5466,5813 5483,5824 5500,5837 5515,5851 5529,5867 5540,5884 5547,5904 5550,5925 5547,5946 5540,5964 5529,5978 5517,5987 5503,5994 5489,5997 5475,6000 5461,6003 5447,6006 5433,6013 5421,6022 5410,6036 5403,6054 5400,6075 5403,6096 5410,6116 5421,6133 5435,6149 5450,6163 5467,6176 5484,6188 5502,6198 5518,6208 5531,6215 5541,6220 5547,6224 5550,6225 "
       style="stroke:#000000;stroke-width:7; stroke-linejoin:bevel; stroke-linecap:butt; "
       id="polyline3444" />
    <!-- Text -->
    <text
       xml:space="preserve"
       x="3075"
       y="8175"
       fill="#000000"
       font-family="Helvetica"
       font-style="normal"
       font-weight="bold"
       font-size="168"
       text-anchor="start"
       id="text3446">Unicast receiver</text>
    <!-- Text -->
    <text
       xml:space="preserve"
       x="975"
       y="8175"
       fill="#000000"
       font-family="Helvetica"
       font-style="normal"
       font-weight="bold"
       font-size="168"
       text-anchor="start"
       id="text3448">Mcast receiver</text>
    <!-- Text -->
    <text
       xml:space="preserve"
       x="5250"
       y="8175"
       fill="#000000"
       font-family="Helvetica"
       font-style="normal"
       font-weight="bold"
       font-size="168"
       text-anchor="start"
       id="text3450">ConnectionTable</text>
    <!-- Text -->
    <text
       xml:space="preserve"
       x="7575"
       y="6750"
       fill="#000000"
       font-family="Helvetica"
       font-style="normal"
       font-weight="bold"
       font-size="168"
       text-anchor="start"
       id="text3452">Transport</text>
    <!-- Text -->
    <text
       xml:space="preserve"
       x="7575"
       y="7005"
       fill="#000000"
       font-family="Helvetica"
       font-style="normal"
       font-weight="bold"
       font-size="168"
       text-anchor="start"
       id="text3454">protocol</text>
    <!-- Text -->
    <text
       xml:space="preserve"
       x="7575"
       y="7260"
       fill="#000000"
       font-family="Helvetica"
       font-style="normal"
       font-weight="bold"
       font-size="168"
       text-anchor="start"
       id="text3456">(UDP, TCP, TCP_NIO2)</text>
    <!-- Text -->
    <text
       xml:space="preserve"
       x="7875"
       y="8775"
       fill="#000000"
       font-family="Helvetica"
       font-style="normal"
       font-weight="bold"
       font-size="168"
       text-anchor="start"
       id="text3458">Network</text>
    <!-- Text -->
    <text
       xml:space="preserve"
       x="2925"
       y="3975"
       fill="#000000"
       font-family="Helvetica"
       font-style="normal"
       font-weight="bold"
       font-size="168"
       text-anchor="start"
       id="text3460">up()</text>
    <!-- Text -->
    <text
       xml:space="preserve"
       x="6750"
       y="3975"
       fill="#000000"
       font-family="Helvetica"
       font-style="normal"
       font-weight="bold"
       font-size="168"
       text-anchor="start"
       id="text3462">down()</text>
    <!-- Text -->
    <text
       xml:space="preserve"
       x="7650"
       y="900"
       fill="#000000"
       font-family="Helvetica"
       font-style="normal"
       font-weight="bold"
       font-size="168"
       text-anchor="start"
       id="text3464">JChannel</text>
    <!-- Text -->
    <text
       xml:space="preserve"
       x="2325"
       y="825"
       fill="#000000"
       font-family="Helvetica"
       font-style="normal"
       font-weight="bold"
       font-size="168"
       text-anchor="start"
       id="text3466">receive()</text>
    <!-- Text -->
    <text
       xml:space="preserve"
       x="6300"
       y="825"
       fill="#000000"
       font-family="Helvetica"
       font-style="normal"
       font-weight="bold"
       font-size="168"
       text-anchor="start"
       id="text3468">send()</text>
    <!-- Text -->
    <text
       xml:space="preserve"
       x="4875"
       y="825"
       fill="#000000"
       font-family="Helvetica"
       font-style="normal"
       font-weight="bold"
       font-size="168"
       text-anchor="start"
       id="text3470">receive()</text>
    <!-- Text -->
    <text
       xml:space="preserve"
       x="4425"
       y="3975"
       fill="#000000"
       font-family="Helvetica"
       font-style="normal"
       font-weight="bold"
       font-size="168"
       text-anchor="start"
       id="text3472">up()</text>
    <!-- Line: box -->
    <rect
       x="600"
       y="4125"
       width="6675"
       height="825"
       rx="0"
       style="stroke:#000000;stroke-width:7; stroke-linejoin:miter; stroke-linecap:butt; "
       id="rect3474" />
  </g>
</svg>
